<svg t="1709204657735" class="icon" viewBox="0 0 1024 1024" version="1.1" xmlns="http://www.w3.org/2000/svg" p-id="16604" width="18" height="18"><path d="M896 128H128A85.426667 85.426667 0 0 0 42.666667 213.333333v512a85.426667 85.426667 0 0 0 85.333333 85.333334v106.666666a21.333333 21.333333 0 0 0 36.42 15.086667L286.166667 810.666667H896a85.426667 85.426667 0 0 0 85.333333-85.333334V213.333333a85.426667 85.426667 0 0 0-85.333333-85.333333z m42.666667 597.333333a42.713333 42.713333 0 0 1-42.666667 42.666667H277.333333a21.333333 21.333333 0 0 0-15.086666 6.246667L170.666667 865.833333V789.333333a21.333333 21.333333 0 0 0-21.333334-21.333333h-21.333333a42.713333 42.713333 0 0 1-42.666667-42.666667V213.333333a42.713333 42.713333 0 0 1 42.666667-42.666666h768a42.713333 42.713333 0 0 1 42.666667 42.666666zM341.333333 469.333333a42.666667 42.666667 0 1 1-42.666666-42.666666 42.666667 42.666667 0 0 1 42.666666 42.666666z m213.333334 0a42.666667 42.666667 0 1 1-42.666667-42.666666 42.666667 42.666667 0 0 1 42.666667 42.666666z m213.333333 0a42.666667 42.666667 0 1 1-42.666667-42.666666 42.666667 42.666667 0 0 1 42.666667 42.666666z" fill="#ffffff" p-id="16605"></path></svg>