<svg t="1703209085597" class="icon" viewBox="0 0 1024 1024" version="1.1" xmlns="http://www.w3.org/2000/svg" p-id="6885" width="18" height="18"><path d="M512 896h-6.4C347.733333 842.666667 64 627.2 64 381.866667 64 241.066667 179.2 128 320 128c74.666667 0 142.933333 32 192 85.333333 49.066667-53.333333 117.333333-85.333333 192-85.333333 140.8 0 256 113.066667 256 253.866667C960 627.2 676.266667 842.666667 518.4 896H512zM320 170.666667C202.666667 170.666667 106.666667 264.533333 106.666667 381.866667c0 217.6 260.266667 418.133333 405.333333 469.333333 145.066667-51.2 405.333333-251.733333 405.333333-469.333333C917.333333 264.533333 821.333333 170.666667 704 170.666667c-70.4 0-134.4 34.133333-174.933333 89.6-8.533333 10.666667-27.733333 10.666667-34.133334 0C454.4 204.8 390.4 170.666667 320 170.666667z" fill="#fff" p-id="6886"></path></svg>